<?xml version="1.0" encoding="UTF-8" standalone="no"?>
<!-- Generator: Adobe Illustrator 15.0.2, SVG Export Plug-In . SVG Version: 6.00 Build 0)  -->

<svg
   xmlns:dc="http://purl.org/dc/elements/1.1/"
   xmlns:cc="http://creativecommons.org/ns#"
   xmlns:rdf="http://www.w3.org/1999/02/22-rdf-syntax-ns#"
   xmlns:svg="http://www.w3.org/2000/svg"
   xmlns="http://www.w3.org/2000/svg"
   xmlns:xlink="http://www.w3.org/1999/xlink"
   xmlns:sodipodi="http://sodipodi.sourceforge.net/DTD/sodipodi-0.dtd"
   xmlns:inkscape="http://www.inkscape.org/namespaces/inkscape"
   version="1.1"
   id="svg2"
   sodipodi:docname="newtry4.svg"
   inkscape:version="0.48.4 r9939"
   x="0px"
   y="0px"
   width="185.73659"
   height="54.907787"
   viewBox="0 0 185.73659 54.907787"
   enable-background="new 0 0 1052.363 744.094"
   xml:space="preserve"
   inkscape:export-filename="I:\KLR.SVN\Resources\krpano-logo\newtry4.png"
   inkscape:export-xdpi="31.397755"
   inkscape:export-ydpi="31.397755"><metadata
   id="metadata4453"><rdf:RDF><cc:Work
       rdf:about=""><dc:format>image/svg+xml</dc:format><dc:type
         rdf:resource="http://purl.org/dc/dcmitype/StillImage" /><dc:title></dc:title></cc:Work></rdf:RDF></metadata><defs
   id="defs4451">
	
	

	
	
		

	
	
		

	
	
		

	
	
		

	
	
		

	
	
		

	
	
		
</defs>
<sodipodi:namedview
   id="base"
   inkscape:window-y="-8"
   inkscape:window-x="-8"
   inkscape:window-height="1028"
   inkscape:window-width="1920"
   inkscape:current-layer="svg2"
   inkscape:document-units="px"
   inkscape:pageshadow="2"
   inkscape:pageopacity="0.0"
   inkscape:window-maximized="1"
   showgrid="false"
   inkscape:cy="-3.3740584"
   inkscape:cx="126.49807"
   inkscape:zoom="4.0330458"
   borderopacity="1.0"
   bordercolor="#666666"
   pagecolor="#ffffff"
   fit-margin-top="4"
   fit-margin-left="4"
   fit-margin-right="4"
   fit-margin-bottom="4">
	</sodipodi:namedview>
<rect
   x="-21.642494"
   y="-216.95087"
   width="1072.363"
   height="764.09998"
   id="rect4392"
   style="fill:none" />
<rect
   x="-11.642493"
   y="-206.95087"
   width="1052.363"
   height="744.09998"
   id="rect4394"
   style="fill:none" />
<g
   id="g3003"
   transform="translate(84.296402,84.73724)">
</g>


<g
   id="g3011"
   transform="translate(119.5342,84.73724)">
</g>


<g
   id="g3021"
   transform="translate(4.4595063,-157.71686)">
</g>

<g
   id="g3035"
   transform="translate(276.3794,158.71334)">
</g>







<g
   id="g5030"
   transform="matrix(0.17241549,0,0,0.17241549,3.3946695,-24.949639)"><path
     id="path4397"
     d="m 76.187477,168.31498 c -5.81,0 -10.939,3.727 -12.75,9.25 -9.733,29.707 -19.33225,59.087 -29.03125,88.75 -9.771,29.882 -19.66075,60.045 -29.84375,91.125 -1.336,4.077 -0.60675,8.57425 1.90625,12.03125 2.514,3.471 6.56075,5.5625 10.84375,5.5625 l 18.15625,0 c 5.807,0 10.935,-3.725 12.75,-9.25 l 12.40625,-37.8125 10.125,37.15625 c 1.588,5.816 6.9095,9.90625 12.9375,9.90625 l 22.406253,0 c 4.199,0 8.19675,-2.01 10.71875,-5.375 0.0311,-0.0416 0.0631,-0.0831 0.0937,-0.125 2.517,3.442 6.58275,5.5 10.84375,5.5 l 17.78125,0 c 5.854,0 10.968,-3.77475 12.75,-9.34375 l 19.375,-60.34375 c 1.165,-3.631 2.504,-7.14975 4,-10.46875 1.484,-3.292 3.1425,-6.49975 4.9375,-9.46875 0.897,-1.473 1.87225,-2.773 2.90625,-3.875 0.944,-1.004 1.9945,-1.8615 3.0625,-2.5625 0.956,-0.626 1.8745,-1.107 2.6875,-1.375 0.582,-0.192 1.14825,-0.28125 1.65625,-0.28125 0.599,0 1.12375,0.08 1.59375,0.25 0.5,0.181 1.0225,0.4945 1.5625,0.9375 2.391,1.959 5.41,3.03125 8.5,3.03125 0.642,0 1.29725,-0.0503 2.03125,-0.15625 3.39365,-0.52043 6.46344,-2.34001 8.5625,-5.03125 l -47.6875,145.65625 c -1.314,4.038 -0.62075,8.51425 1.90625,12.03125 2.515,3.451 6.57575,5.53125 10.84375,5.53125 l 17.75,0 c 5.816,0 10.938,-3.725 12.75,-9.25 l 18.96875,-56.125 c 1.647,0.755 3.347,1.377 5.125,1.875 3.601,1.024 7.57725,1.5625 11.78125,1.5625 5.33,0 10.792,-0.8235 16.25,-2.4375 5.242,-1.549 10.593,-3.86275 15.875,-6.84375 5.355,-3.004 10.44,-6.68175 15.125,-10.96875 2.47166,-2.26099 4.85771,-4.71792 7.15625,-7.34375 0.80382,4.26084 2.28624,8.23472 4.46875,11.84375 3.321,5.482 8.10125,9.61225 14.15625,12.28125 5.203,2.296 11.386,3.46875 18.375,3.46875 4.036,0 8.079,-0.40575 12,-1.21875 3.903,-0.802 7.82725,-2.01775 11.65625,-3.59375 1.071,-0.439 2.138,-0.93775 3.25,-1.46875 2.419,2.277 5.6695,3.6875 9.1875,3.6875 l 18.59375,0 c 2.64299,0 5.15652,-0.80573 7.3125,-2.21875 2.16293,1.42028 4.7329,2.21875 7.375,2.21875 l 17.78125,0 c 5.849,0 10.964,-3.7425 12.75,-9.3125 l 20.1875,-63 c 2.049,-6.386 4.33025,-11.6925 6.78125,-15.8125 2.014,-3.388 4.18925,-5.99325 6.28125,-7.53125 2.534,-1.862 5.055,-3.251 7.5,-4.125 2.223,-0.795 4.49575,-1.1875 6.71875,-1.1875 1.107,0 1.8095,0.12175 2.1875,0.21875 -0.01,0.55 -0.0975,1.7925 -0.5625,4.0625 -0.508,2.487 -1.34375,5.52825 -2.46875,9.03125 l -22.5,70.15625 c -1.305,4.07 -0.5785,8.52975 1.9375,11.96875 2.516,3.446 6.57775,5.53125 10.84375,5.53125 l 17.78125,0 c 5.85,0 10.963,-3.77275 12.75,-9.34375 l 7.0625,-22.0625 c 0.96741,4.16906 2.42022,8.03589 4.375,11.5625 4.171,7.54 10.103,13.27875 17.625,17.09375 6.978,3.537 15.29075,5.34375 24.71875,5.34375 5.674,0 11.43375,-0.7365 17.09375,-2.1875 5.526,-1.414 11.10875,-3.55475 16.59375,-6.34375 5.464,-2.783 10.628,-6.1525 15.375,-10.0625 2.52157,-2.07989 4.95718,-4.3409 7.28125,-6.75 -0.15616,4.03837 0.70161,7.91534 2.59375,11.34375 3.58,6.481 10.35775,10.34375 18.09375,10.34375 5.839,0 11.8845,-2.21 17.0625,-6.25 4.6546,-3.63105 8.31074,-8.54382 10.34375,-13.84375 0.22456,0.44208 0.47948,0.88035 0.71875,1.3125 4.46,8.051 11.4255,14.34775 20.1875,18.21875 6.288,2.779 13.45275,4.25 20.71875,4.25 1.493,0 2.98525,-0.0685 4.40625,-0.1875 2.898,-0.231 5.86325,-0.601 8.78125,-1.125 3.017,-0.54 5.968,-1.2445 8.75,-2.0625 0.644,-0.189 1.301,-0.3715 2,-0.5625 l 0.21875,-0.0625 c 1.794,-0.49 3.8365,-1.024 5.9375,-1.75 4.863,-1.672 8.506,-3.7275 11.5,-6.4375 1.76706,-1.60037 3.19918,-3.49925 4.3125,-5.59375 3.85056,5.26768 8.75184,9.42909 14.625,12.40625 6.98,3.537 15.29475,5.34375 24.71875,5.34375 5.677,0 11.43675,-0.7375 17.09375,-2.1875 5.526,-1.414 11.0775,-3.55475 16.5625,-6.34375 5.47,-2.786 10.66625,-6.1565 15.40625,-10.0625 2.7064,-2.23319 5.31189,-4.67012 7.78125,-7.28125 l -2.2812,7.0625 c -1.299,4.055 -0.5835,8.531 1.9375,12 2.516,3.442 6.5505,5.5 10.8125,5.5 l 17.78125,0 c 5.854,0 11.00025,-3.7455 12.78125,-9.3125 l 20.1875,-62.96875 c 2.045,-6.382 4.32725,-11.71875 6.78125,-15.84375 2.013,-3.387 4.18825,-5.99425 6.28125,-7.53125 2.535,-1.863 5.055,-3.25 7.5,-4.125 l 0.1875,-0.0625 c 1.832,-0.695 2.9515,-0.84375 3.5625,-0.84375 0.069,0 0.10125,0.0283 0.15625,0.0312 -0.017,0.589 -0.0883,1.832 -0.53125,4 -0.51,2.498 -1.34475,5.53725 -2.46875,9.03125 l -22.5,70.15625 c -1.291,4.057 -0.5785,8.51875 1.9375,11.96875 2.516,3.442 6.58175,5.5 10.84375,5.5 l 17.75,0 c 5.856,0 11.00225,-3.7455 12.78125,-9.3125 l 22.75,-70.90625 c 1.447,-4.517 2.609,-8.44875 3.5,-11.71875 0.667,-1.632 3.17275,-4.3335 5.84375,-5.4375 -0.042,0.224 -0.073,0.46975 -0.125,0.71875 -0.512,2.497 -1.34775,5.53625 -2.46875,9.03125 l -22.46875,70.125 c -1.311,4.072 -0.60975,8.56 1.90625,12 2.515,3.45 6.57375,5.5 10.84375,5.5 l 17.78125,0 c 5.848,0 10.96207,-3.7405 12.75007,-9.3125 l 22.75,-70.90625 c 1.5209,-4.748 2.734,-8.812 3.625,-12.125 1.0219,-3.804 1.656,-6.72775 2,-9.21875 0.4759,-3.62 0.6062,-7.08575 0.4062,-10.34375 -0.218,-3.534 -0.852,-6.92025 -1.875,-10.03125 -1.24,-3.77 -3.196,-7.20675 -5.875,-10.21875 -2.458,-2.761 -5.5378,-5.151 -9.0938,-7.125 -3.3299,-1.85 -6.9862,-3.25025 -10.9062,-4.15625 -4.604,-1.063 -13.64352,-1.28125 -15.81252,-1.28125 -5.008,0 -9.974,0.6175 -14.75,1.8125 -3.05,0.761 -6.08025,1.78225 -9.03125,3.03125 -3.017,-1.549 -6.30125,-2.7575 -9.78125,-3.5625 -3.679,-0.849 -7.6535,-1.28125 -11.8125,-1.28125 -9.644,0 -14.8205,2.35725 -21.6875,5.65625 -2.372,-1.94195 -5.377,-3.0312 -8.5,-3.0312 l -16,0 c -5.855,0 -10.99925,3.7445 -12.78125,9.3125 l -6.46875,20.1875 c -1.00998,-3.93124 -2.47117,-7.60092 -4.375,-11 -4.209,-7.507 -10.11125,-13.2515 -17.53125,-17.0625 -6.95,-3.567 -15.179,-5.375 -24.5,-5.375 -7.948,0 -15.815,1.3245 -23.375,3.9375 -7.404,2.557 -14.681,6.42475 -21.625,11.46875 -0.94289,0.68797 -1.86466,1.39421 -2.78125,2.125 -1.47239,-4.79328 -4.78692,-8.7676 -9.59375,-11.5 -2.613,-1.486 -5.22425,-2.385 -7.65625,-3.125 -6.206,-1.887 -12.69925,-2.84375 -19.28125,-2.84375 -2.359,0 -4.73175,0.128 -7.09375,0.375 -8.624,0.895 -17.049,3.39 -25,7.375 -2.135,1.07 -4.28725,2.2635 -6.40625,3.5625 -2.046,1.257 -4.05,2.60925 -6,4.03125 -8.307,6.063 -15.63075,13.802 -21.71875,23 -5.884,8.887 -10.7735,19.3825 -14.5625,31.1875 -3.41989,10.66681 -5.24013,20.37951 -5.46875,28.9375 -3.68641,-3.24696 -8.56063,-5.0625 -13.875,-5.0625 -3.94844,0 -7.97555,1.03357 -11.78125,2.9375 2.88166,-6.02594 5.55228,-12.81318 7.9375,-20.25 3.343,-10.419 5.0445,-20.0315 5.0625,-28.5625 0.021,-9.47 -1.99125,-17.94325 -6.03125,-25.15625 -4.21,-7.508 -10.11225,-13.2545 -17.53125,-17.0625 -6.946,-3.568 -15.20625,-5.375 -24.53125,-5.375 -7.945,0 -15.812,1.3245 -23.375,3.9375 -7.399,2.556 -14.64575,6.42275 -21.59375,11.46875 -6.95886,5.07743 -13.20325,11.35675 -18.625,18.65625 -0.0151,-0.41901 -0.0367,-0.8388 -0.0625,-1.25 -0.219,-3.538 -0.853,-6.894 -1.875,-10 -1.241,-3.769 -3.23025,-7.20975 -5.90625,-10.21875 -2.456,-2.761 -5.5005,-5.17825 -9.0625,-7.15625 -3.333,-1.851 -6.99125,-3.25225 -10.90625,-4.15625 -3.684,-0.85 -7.6595,-1.28125 -11.8125,-1.28125 -8.939,0 -17.59975,1.90225 -25.71875,5.65625 -2.374,-1.947 -5.375,-3.03125 -8.5,-3.03125 l -16,0 c -5.859,0 -10.975,3.7475 -12.75,9.3125 l -3.65625,11.40625 c -0.32,-1.03607 -0.67654,-2.04339 -1.09375,-3 -1.503,-3.512 -3.78725,-6.65725 -6.78125,-9.40625 -2.573,-2.353 -5.70375,-4.42425 -9.34375,-6.15625 -2.369,-1.118 -4.991,-2.054 -7.75,-2.75 -2.561,-0.652 -5.28,-1.15175 -8.125,-1.46875 -1.284,-0.176 -2.6465,-0.30825 -4.0625,-0.40625 -1.503,-0.104 -3.024,-0.15625 -4.5,-0.15625 -4.368,0 -8.697,0.4405 -12.875,1.3125 -4.168,0.883 -8.227,2.234 -12.125,4 -2.9,1.327 -5.65025,2.8545 -8.15625,4.5625 -8.546,5.386 -13.43625,13.48175 -13.78125,22.84375 -0.253,7.566 2.5445,12.0875 4.9375,14.5625 3.063,3.167 7.33925,4.9375 12.03125,4.9375 0.179,0 0.35125,-0.0263 0.53125,-0.0312 -1.964,0.316 -3.799,0.63875 -5.5,0.96875 -2.952,0.58 -5.4115,1.19775 -7.5625,1.84375 l -0.125,0.0312 c -2.955,0.924 -5.847,2.06125 -8.625,3.40625 -2.25087,1.09101 -4.46833,2.34996 -6.625,3.71875 0.19781,-1.08137 0.37381,-2.15732 0.53125,-3.21875 0.884,-5.907 1.15975,-11.701 0.84375,-17.25 -0.352,-6.061 -1.534,-11.632 -3.5,-16.5 -2.126,-5.316 -5.19825,-9.94125 -9.15625,-13.78125 -3.981,-3.864 -8.7365,-6.7845 -14.0625,-8.6875 -4.958,-1.786 -10.5295,-2.71875 -16.5625,-2.71875 -4.423,0 -8.76,0.51175 -12.875,1.46875 -3.615,0.834 -7.1415,2.05225 -10.5625,3.65625 -2.255,-1.606 -4.9985,-2.5 -7.8125,-2.5 l -16.1875,0 c -5.5242,0 -10.39709,3.33897 -12.40625,8.34375 -0.41924,-0.48659 -0.87786,-0.94394 -1.375,-1.375 -3.579,-3.102 -7.487,-5.48975 -11.625,-7.09375 -4.248,-1.646 -8.76325,-2.5 -13.40625,-2.5 -3.411,0 -6.84475,0.55075 -10.21875,1.59375 -2.242,0.692 -4.49575,1.62625 -6.71875,2.78125 -1.991,-1.126 -4.25475,-1.75 -6.59375,-1.75 l -16,0 c -5.59551,0 -10.51795,3.41922 -12.5,8.59375 -1.98746,-5.15349 -6.91188,-8.59375 -12.46875,-8.59375 l -23.53125,0 c -3.047,0 -6.009,1.06275 -8.375,2.96875 l -23.093753,18.53125 c 1.388,-4.216 2.7835,-8.487 4.1875,-12.75 6.688,-20.308 13.384753,-40.617 18.343753,-55.75 1.333,-4.07 0.637,-8.56325 -1.875,-12.03125 -2.514,-3.471 -6.564753,-5.53125 -10.843753,-5.53125 l -18.375,-0.0312 z m 70.843753,89.28125 -30.03125,93.625 -16.8125,-57.15625 46.84375,-36.46875 z m 136.90625,14.84375 c 0.74,0 1.731,0.0553 2.25,0.40625 0.19,0.129 0.84375,0.6935 1.59375,2.4375 0.402,0.935 1.02575,3.14175 0.71875,7.46875 -0.32,4.437 -1.49,9.88225 -3.5,16.15625 -2.169,6.769 -4.6675,12.6835 -7.4375,17.5625 -2.539,4.464 -5.33825,8.07525 -8.28125,10.78125 -2.957,2.718 -5.81,4.72475 -8.5,5.96875 -2.156,1.001 -4.23375,1.5 -6.21875,1.5 -1.25,0 -2.18225,-0.16475 -2.65625,-0.46875 -0.535,-0.349 -1.0535,-1.08075 -1.5625,-2.21875 -0.304,-0.678 -0.96925,-2.72975 -0.65625,-7.09375 0.32,-4.432 1.50025,-9.89075 3.53125,-16.21875 2.091,-6.498 4.56475,-12.23725 7.34375,-17.03125 2.578,-4.476 5.4935,-8.23975 8.6875,-11.21875 3.178,-2.974 6.17725,-5.164 8.90625,-6.5 2.112,-1.03 4.07425,-1.53125 5.78125,-1.53125 z m 459.3125,0.65625 c 0.5,0 0.9885,0.05 1.4375,0.125 0.627,0.106 1.36025,0.29025 2.03125,0.53125 0.668,0.24 1.147,0.48 1.375,0.625 3.869,2.449 7.64275,3.80475 11.46875,4.09375 0.36632,0.0288 0.72998,0.0224 1.09375,0.0312 -3.39111,6.51012 -6.36795,13.65878 -8.84375,21.375 -3.43545,10.7135 -5.25482,20.47277 -5.46875,29.0625 -1.95373,-0.93944 -4.08021,-1.53252 -6.34375,-1.6875 -0.429,-0.031 -0.8785,-0.0312 -1.3125,-0.0312 -3.796,0 -7.63275,1.15925 -11.71875,3.53125 -3.697,2.144 -7.63125,3.6 -10.78125,4 -0.599,0.076 -1.14525,0.0937 -1.65625,0.0937 -2.183,0 -2.9195,-0.65925 -3.1875,-0.90625 -0.442,-0.412 -0.9075,-0.94575 -1.3125,-1.46875 -0.51,-0.66 -0.728,-1.078 -0.75,-1.125 -0.43,-0.898 -1.11,-3.04125 -0.875,-7.28125 0.243,-4.362 1.39425,-9.731 3.40625,-16 2.056,-6.412 4.4635,-12.0415 7.1875,-16.6875 2.509,-4.282 5.31175,-7.82725 8.34375,-10.53125 2.115,-1.884 5.49425,-4.48975 9.53125,-6.21875 2.364,-1.012 4.5,-1.53125 6.375,-1.53125 z m -359.84375,0.0625 c 1.255,0 2.40475,0.213 3.21875,0.625 0.062,0.031 0.1275,0.0618 0.1875,0.0937 -0.107,0.85 -0.3375,2.09325 -0.8125,3.78125 -0.408,0.115 -0.8515,0.21775 -1.3125,0.34375 -5.302,1.448 -11.09975,2.61875 -18.71875,3.71875 0.777,-0.208 1.55775,-0.46 2.34375,-0.75 l 0.71875,-0.28125 0.6875,-0.375 c 2.935,-1.636 5.44425,-3.3725 7.65625,-5.3125 1.461,-1.122 3.80125,-1.84375 6.03125,-1.84375 z m 213.1875,0.125 c 1.847,0 3.3875,0.323 4.3125,0.875 0.536,0.32 1.23025,0.8955 2.03125,2.5625 0.441,0.916 1.16675,3.05925 0.96875,7.15625 -0.2,4.198 -1.2685,9.36075 -3.1875,15.34375 -2.115,6.598 -4.605,12.352 -7.375,17.125 -2.553,4.392 -5.3865,8.012 -8.4375,10.75 -3.012,2.705 -6.0275,4.70875 -8.9375,5.96875 -2.556,1.105 -5.1415,1.6875 -7.6875,1.6875 -1.926,0 -3.50775,-0.33725 -4.46875,-0.90625 -0.525,-0.311 -1.225,-0.873 -2,-2.5 -0.431,-0.902 -1.109,-3.05425 -0.875,-7.28125 0.246,-4.372 1.368,-9.74 3.375,-16 2.062,-6.423 4.49575,-12.0475 7.21875,-16.6875 2.507,-4.28 5.30575,-7.82225 8.34375,-10.53125 2.991,-2.667 5.99225,-4.65725 8.90625,-5.90625 2.582,-1.103 5.2135,-1.65625 7.8125,-1.65625 z m 231.3125,0 c 1.848,0 3.35525,0.323 4.28125,0.875 0.535,0.32 1.2625,0.9005 2.0625,2.5625 0.441,0.919 1.16775,3.06125 0.96875,7.15625 -0.201,4.204 -1.29875,9.36375 -3.21875,15.34375 -2.113,6.597 -4.57175,12.349 -7.34375,17.125 -2.551,4.389 -5.3915,8.015 -8.4375,10.75 -3.018,2.708 -6.0265,4.70875 -8.9375,5.96875 -2.553,1.106 -5.1415,1.6875 -7.6875,1.6875 -1.926,0 -3.50775,-0.33725 -4.46875,-0.90625 -0.526,-0.311 -1.25225,-0.864 -2.03125,-2.5 -0.43,-0.899 -1.111,-3.04825 -0.875,-7.28125 0.244,-4.363 1.39625,-9.732 3.40625,-16 2.056,-6.412 4.4635,-12.0415 7.1875,-16.6875 2.508,-4.28 5.335,-7.82125 8.375,-10.53125 2.991,-2.667 5.98825,-4.65725 8.90625,-5.90625 2.579,-1.103 5.2145,-1.65625 7.8125,-1.65625 z m -459.375,50.75 c -0.208,0.309 -0.44425,0.59925 -0.65625,0.90625 -1.153,1.663 -2.37625,3.2845 -3.65625,4.8125 -3.388,4.048 -8.20425,5.31625 -11.65625,5.65625 -0.499,0.049 -1.00575,0.0625 -1.46875,0.0625 -0.682,0 -1.30325,-0.0482 -1.90625,-0.15625 l -0.0312,0 c 0.055,-0.275 0.148,-0.5815 0.25,-0.9375 0.232,-0.808 0.5425,-1.618 0.9375,-2.375 0.389,-0.744 0.85625,-1.455 1.40625,-2.125 0.523,-0.639 1.09425,-1.188 1.65625,-1.625 0.517,-0.407 1.091,-0.7565 1.75,-1.0625 0.362,-0.169 1.44875,-0.649 3.71875,-1.25 2.153,-0.554 4.771,-1.08675 7.75,-1.59375 0.641,-0.107 1.27725,-0.2015 1.90625,-0.3125 z"
     style="fill:#ffffff;stroke:#000000;stroke-width:0.80000001;stroke-linecap:square;stroke-miterlimit:4;stroke-dasharray:none"
     inkscape:connector-curvature="0" /><path
     style="fill:#000000;stroke:#000000;stroke-width:0.25;stroke-linecap:square"
     d="m 83.694,365.02023 c -1.536,0 -2.882,-1.027 -3.288,-2.512 l -14.749,-54.042 -12.292,9.495 -14.651,44.71 c -0.46,1.4 -1.765,2.348 -3.239,2.348 H 17.318 c -1.093,0 -2.118,-0.525 -2.759,-1.41 -0.642,-0.883 -0.819,-2.021 -0.479,-3.059 20.291,-61.932 39.32,-120.247 58.858,-179.879 0.459,-1.4 1.765,-2.346 3.238,-2.346 l 18.367,0.013 c 1.093,0 2.119,0.523 2.76,1.409 0.64,0.884 0.819,2.021 0.479,3.06 -4.958,15.128 -11.644,35.434 -18.33,55.737 -5.185,15.744 -10.367,31.488 -14.746,44.816 l 49.39,-39.704 c 0.605,-0.487 1.357,-0.752 2.134,-0.752 h 23.506 c 1.456,0 2.75,0.925 3.222,2.301 0.473,1.376 0.019,2.901 -1.13,3.796 l -53.141,41.351 20.672,70.299 c 0.303,1.029 0.103,2.143 -0.541,3.002 -0.644,0.859 -1.654,1.367 -2.728,1.367 H 83.694 z"
     inkscape:connector-curvature="0"
     sodipodi:nodetypes="sccccssccccccccccsssccccss"
     id="path3009" /><path
     style="fill:#000000;stroke:#000100;stroke-width:0.25;stroke-linecap:square;stroke-miterlimit:10"
     d="m 127.742,365.02023 c -1.087,0 -2.11,-0.521 -2.752,-1.4 -0.642,-0.877 -0.824,-2.012 -0.491,-3.047 l 36.979,-115.302 c 0.453,-1.411 1.764,-2.368 3.244,-2.368 h 15.998 c 1.089,0 2.111,0.52 2.752,1.4 0.642,0.878 0.824,2.012 0.493,3.048 l -0.848,2.638 c 2.458,-2.302 4.667,-4.04 6.72,-5.288 2.379,-1.444 4.782,-2.546 7.147,-3.276 2.421,-0.749 4.87,-1.129 7.279,-1.129 3.402,0 6.695,0.607 9.785,1.805 3.063,1.188 5.986,2.979 8.694,5.325 1.29,1.119 1.554,3.021 0.614,4.448 l -11.938,18.131 c -0.531,0.806 -1.38,1.35 -2.335,1.497 -0.17,0.024 -0.341,0.037 -0.511,0.037 -0.782,0 -1.547,-0.27 -2.161,-0.772 -1.413,-1.16 -2.926,-2.037 -4.498,-2.606 -1.565,-0.566 -3.252,-0.854 -5.016,-0.854 -1.57,0 -3.175,0.265 -4.772,0.792 -1.66,0.547 -3.361,1.39 -5.059,2.503 -1.728,1.134 -3.355,2.508 -4.837,4.085 -1.506,1.605 -2.91,3.467 -4.168,5.534 -2.017,3.334 -3.876,6.882 -5.524,10.537 -1.652,3.665 -3.138,7.545 -4.415,11.527 l -19.36,60.366 c -0.451,1.41 -1.763,2.369 -3.244,2.369 h -17.776 z"
     stroke-miterlimit="10"
     inkscape:connector-curvature="0"
     id="path3017" /><g
     transform="translate(-2.6859138e-7,-26.778769)"
     id="g3019">
	<g
   id="g3027">
		<defs
   id="defs4407">
			<polygon
   points="323.906,267.079 323.906,435.991 188.521,435.991 188.521,267.079 188.521,267.079 "
   id="SVGID_1_" />
		</defs>
		<clipPath
   id="SVGID_2_">
			<use
   id="use4411"
   overflow="visible"
   xlink:href="#SVGID_1_"
   style="overflow:visible"
   x="0"
   y="0"
   width="1052.363"
   height="744.09399" />
		</clipPath>
		<rect
   id="rect4413"
   height="188.912"
   width="155.38499"
   clip-path="url(#SVGID_2_)"
   y="257.07901"
   x="178.521"
   style="fill:none" />
		<g
   clip-path="url(#SVGID_2_)"
   id="g3029">
			<g
   transform="translate(251.6699,307.6904)"
   id="g3031">
			</g>
		</g>
	</g>
</g><path
     id="path3041"
     stroke-miterlimit="10"
     d="m 298.4859,283.47463 c -0.375,5.2 -1.7,11.413 -3.963,18.476 -2.387,7.449 -5.175,13.987 -8.275,19.449 -3.05,5.363 -6.475,9.813 -10.188,13.226 -3.712,3.412 -7.438,6 -11.063,7.676 -3.5,1.624 -7.012,2.437 -10.45,2.437 -3.238,0 -5.888,-0.688 -8.088,-2.1 -2.188,-1.426 -3.912,-3.563 -5.237,-6.525 -1.35,-3.013 -1.862,-7.013 -1.513,-11.9 0.375,-5.188 1.713,-11.438 4,-18.563 2.3,-7.148 5.05,-13.524 8.188,-18.938 3.076,-5.338 6.626,-9.901 10.526,-13.538 3.887,-3.637 7.712,-6.4 11.362,-8.188 3.487,-1.7 6.9,-2.563 10.138,-2.563 3.15,0 5.725,0.7 7.862,2.15 2.138,1.45 3.888,3.725 5.188,6.75 1.35,3.138 1.863,7.226 1.513,12.151 z m 25.312,-10.925 c -0.288,-4.962 -1.225,-9.45 -2.8,-13.35 -1.6,-4 -3.913,-7.487 -6.85,-10.337 -2.95,-2.863 -6.475,-5.038 -10.462,-6.462 -3.887,-1.4 -8.325,-2.1 -13.175,-2.1 -3.663,0 -7.238,0.4 -10.625,1.188 -3.413,0.788 -6.712,2 -9.813,3.575 -2.85,1.463 -5.725,3.275 -8.563,5.413 l 1,-3.125 c 0.337,-1.038 0.15,-2.163 -0.488,-3.05 -0.65,-0.875 -1.662,-1.4 -2.762,-1.4 h -16.187 c -1.475,0 -2.788,0.962 -3.238,2.375 l -58.864,179.826 c -0.337,1.037 -0.15,2.162 0.487,3.049 0.638,0.875 1.663,1.4 2.75,1.4 h 17.775 c 1.475,0 2.787,-0.963 3.237,-2.375 l 23.415,-69.287 c 1.512,1.838 3.3,3.512 5.337,4.975 2.225,1.6 4.775,2.813 7.587,3.6 2.725,0.775 5.763,1.162 9.025,1.162 4.35,0 8.863,-0.674 13.425,-2.023 4.487,-1.326 9.137,-3.326 13.813,-5.965 4.675,-2.623 9.15,-5.873 13.275,-9.648 4.112,-3.762 8,-8.137 11.563,-13.025 3.525,-4.851 6.712,-10.075 9.45,-15.525 2.725,-5.45 5.1,-11.263 7.025,-17.3 1.813,-5.65 3.125,-11.162 3.9,-16.388 0.788,-5.266 1.038,-10.378 0.763,-15.203 z"
     inkscape:connector-curvature="0"
     style="fill:#000000;stroke:#000100;stroke-width:0.25;stroke-linecap:square;stroke-miterlimit:10" /><path
     id="path3049"
     sodipodi:nodetypes="cccccccccccccccccccccccccscccccccccccccccccccccccccscccccsscccccccccc"
     inkscape:connector-curvature="0"
     d="m 385.9917,309.89903 c 0.855,0.327 -3.205,9.185 -3.66,10.12 -1.793,3.692 -3.885,7.25 -6.225,10.624 -1.32,1.904 -2.729,3.755 -4.217,5.532 -4.62,5.519 -11.23,8.473 -18.351,9.174 -2.04,0.201 -4.102,0.167 -6.123,-0.195 -2.625,-0.469 -5.408,-0.838 -6.954,-3.285 -0.805,-1.273 -1.262,-2.692 -1.395,-4.316 -0.142,-1.753 0.097,-3.75 0.723,-5.948 0.421,-1.468 0.998,-2.896 1.694,-4.231 0.697,-1.335 1.551,-2.631 2.538,-3.834 0.974,-1.189 2.042,-2.26 3.185,-3.148 1.13,-0.89 2.367,-1.647 3.688,-2.26 1.359,-0.638 3.209,-1.263 5.481,-1.864 2.38,-0.612 5.265,-1.214 8.581,-1.778 4.869,-0.817 9.364,-1.719 13.379,-2.682 1.33,-0.318 2.614,-0.799 3.917,-1.203 0.991,-0.313 2.76,-1.082 3.739,-0.706 z m 37.372,-48.345 c -0.243,-2.56 -0.82,-4.916 -1.722,-6.983 -0.936,-2.188 -2.39,-4.208 -4.326,-5.985 -1.826,-1.671 -4.135,-3.186 -6.864,-4.485 -1.754,-0.828 -3.75,-1.538 -5.938,-2.09 -2.127,-0.542 -4.495,-0.962 -6.911,-1.227 -1.118,-0.156 -2.296,-0.276 -3.521,-0.361 -1.214,-0.084 -2.489,-0.133 -3.799,-0.133 -3.713,0 -7.344,0.374 -10.792,1.094 -3.463,0.734 -6.84,1.84 -10.049,3.294 -2.416,1.106 -4.712,2.393 -6.827,3.847 -5.475,3.4 -9.031,8.41 -9.267,14.806 -0.277,8.281 4.913,10.686 11.498,8.255 2.819,-1.572 4.684,-2.991 6.098,-4.251 5.275,-4.284 14.049,-5.565 20.19,-2.46 1.571,0.795 3.688,2.149 4.728,3.602 0.721,1.01 1.058,2.56 1.021,4.604 -0.059,2.463 -0.674,5.564 -1.852,9.23 -0.107,0.337 -0.313,0.926 -0.589,1.743 -0.572,1.688 -0.927,1.788 -2.594,2.305 -1.5,0.466 -3.011,0.894 -4.523,1.307 -6.966,1.902 -14.079,3.13 -21.225,4.13 -3.316,0.479 -6.274,0.973 -8.822,1.466 -2.631,0.517 -4.796,1.034 -6.634,1.586 -2.465,0.771 -4.904,1.731 -7.261,2.873 -2.332,1.13 -4.639,2.452 -6.874,3.955 -2.249,1.526 -4.435,3.316 -6.479,5.325 -2.02,1.993 -3.966,4.253 -5.77,6.719 -1.815,2.487 -3.425,5.144 -4.771,7.896 -1.335,2.753 -2.44,5.662 -3.306,8.667 -1.478,5.167 -2.079,9.976 -1.814,14.291 0.288,4.495 1.514,8.571 3.665,12.127 2.236,3.691 5.469,6.49 9.616,8.318 3.917,1.729 8.75,2.609 14.339,2.609 3.317,0 6.684,-0.338 9.989,-1.023 3.281,-0.674 6.599,-1.693 9.868,-3.039 2.525,-1.037 5.192,-2.381 7.946,-3.992 1.514,-0.891 3.076,-1.875 4.675,-2.957 -0.049,1.922 0.036,3.75 0.265,5.457 0.228,1.684 1.67,2.945 3.376,2.945 h 18.571 c 1.009,0 1.97,-0.445 2.62,-1.227 0.649,-0.781 0.913,-1.814 0.732,-2.801 -0.384,-1.994 -0.576,-4.063 -0.576,-6.154 -0.013,-2.115 0.169,-4.303 0.529,-6.527 0.36,-2.246 1.37,-6.224 2.98,-11.826 1.624,-5.625 3.92,-13.077 6.829,-22.151 l 8.353,-26.048 c 1.394,-4.363 2.526,-8.126 3.355,-11.166 0.852,-3.16 1.406,-5.577 1.671,-7.476 0.358,-2.922 0.43,-5.637 0.192,-8.089 z"
     style="fill:#000000;stroke:#000100;stroke-width:0.25;stroke-linecap:square;stroke-linejoin:round" /><path
     id="path3057"
     inkscape:connector-curvature="0"
     stroke-miterlimit="10"
     d="m 478.8108,365.02033 c -1.09,0 -2.112,-0.521 -2.754,-1.4 -0.642,-0.877 -0.823,-2.012 -0.491,-3.047 l 22.492,-70.137 c 1.232,-3.84 2.153,-7.23 2.735,-10.079 0.554,-2.703 0.81,-4.938 0.758,-6.64 -0.044,-1.504 -0.335,-2.85 -0.864,-4.004 -0.516,-1.125 -1.257,-2.091 -2.265,-2.949 -1.04,-0.884 -2.251,-1.535 -3.7,-1.989 -1.54,-0.481 -3.34,-0.725 -5.35,-0.725 -3.375,0 -6.761,0.6 -10.066,1.781 -3.361,1.201 -6.745,3.046 -10.059,5.48 -3.21,2.36 -6.222,5.884 -8.954,10.479 -2.834,4.765 -5.428,10.784 -7.707,17.891 l -20.198,62.969 c -0.452,1.41 -1.762,2.369 -3.243,2.369 h -17.773 c -1.087,0 -2.111,-0.521 -2.752,-1.4 -0.641,-0.877 -0.824,-2.012 -0.491,-3.047 l 36.977,-115.301 c 0.45,-1.411 1.763,-2.368 3.244,-2.368 h 16 c 1.086,0 2.109,0.52 2.751,1.399 0.643,0.88 0.823,2.014 0.492,3.05 l -1.361,4.244 c 3.268,-2.48 6.633,-4.555 10.069,-6.21 7.013,-3.376 14.498,-5.089 22.255,-5.089 3.402,0 6.62,0.346 9.562,1.025 3.006,0.694 5.804,1.754 8.318,3.15 2.575,1.43 4.745,3.127 6.451,5.045 1.76,1.979 3.063,4.231 3.875,6.695 0.756,2.296 1.223,4.821 1.389,7.505 0.164,2.612 0.047,5.454 -0.348,8.443 -0.271,1.981 -0.84,4.561 -1.739,7.905 -0.856,3.19 -2.037,7.124 -3.499,11.69 l -22.736,70.895 c -0.452,1.41 -1.763,2.369 -3.244,2.369 h -17.774 z"
     style="fill:#000000;stroke:#000100;stroke-width:0.25;stroke-linecap:square;stroke-miterlimit:10" /><path
     id="path3065"
     inkscape:connector-curvature="0"
     stroke-miterlimit="10"
     d="m 596.6009,263.29013 c -3.957,0 -7.906,0.83 -11.736,2.466 -3.91,1.675 -7.826,4.242 -11.631,7.635 -3.814,3.401 -7.291,7.754 -10.33,12.941 -3.098,5.277 -5.82,11.559 -8.102,18.668 -2.268,7.073 -3.564,13.305 -3.857,18.519 -0.273,4.925 0.348,9.011 1.842,12.143 1.467,3.08 3.406,5.306 5.932,6.802 2.549,1.512 5.77,2.278 9.57,2.278 3.92,0 7.844,-0.838 11.658,-2.488 3.906,-1.69 7.822,-4.287 11.637,-7.714 3.828,-3.435 7.328,-7.86 10.406,-13.153 3.129,-5.393 5.904,-11.823 8.242,-19.115 2.186,-6.813 3.418,-12.842 3.66,-17.92 0.232,-4.803 -0.418,-8.83 -1.93,-11.973 -1.482,-3.086 -3.424,-5.316 -5.938,-6.817 -2.52,-1.508 -5.692,-2.272 -9.423,-2.272 z m -33.461,104.336 c -7.848,0 -14.643,-1.432 -20.203,-4.25 -5.699,-2.891 -10.207,-7.275 -13.393,-13.033 -3.148,-5.679 -4.674,-12.629 -4.534,-20.654 0.134,-7.755 1.827,-16.76 5.04,-26.769 3.502,-10.924 8.01,-20.585 13.391,-28.714 5.432,-8.21 11.91,-15.086 19.252,-20.443 6.133,-4.454 12.518,-7.842 18.986,-10.076 6.508,-2.249 13.273,-3.39 20.107,-3.39 7.723,0 14.434,1.438 19.953,4.272 5.643,2.896 10.141,7.288 13.371,13.049 3.186,5.688 4.795,12.493 4.777,20.227 -0.016,7.493 -1.557,16.082 -4.588,25.527 -2.422,7.55 -5.139,14.398 -8.084,20.353 -2.979,6.026 -6.275,11.323 -9.799,15.745 -3.516,4.417 -7.414,8.4 -11.584,11.839 -4.18,3.443 -8.74,6.434 -13.561,8.889 -4.828,2.455 -9.717,4.324 -14.531,5.557 -4.852,1.242 -9.764,1.871 -14.6,1.871 l 0,0 z"
     style="fill:#000000;stroke:#000100;stroke-width:0.25;stroke-linecap:square;stroke-miterlimit:10" /><path
     id="path3073"
     sodipodi:nodetypes="scccccccccssccccccccscccsscccssccccsccccccccscccccccccss"
     inkscape:connector-curvature="0"
     stroke-miterlimit="10"
     d="m 974.5638,366.32333 c -1.088,0 -2.113,-0.521 -2.754,-1.4 -0.643,-0.879 -0.824,-2.012 -0.49,-3.049 l 22.492,-70.135 c 1.23,-3.838 2.15,-7.229 2.734,-10.079 0.555,-2.704 0.811,-4.938 0.756,-6.64 -0.307,-3.168 -1.297,-4.516 -4.279,-6.019 -9.777,-2.839 -19.344,5.886 -21.529,12.368 -0.859,3.189 -2.037,7.124 -3.5,11.689 l -22.736,70.896 c -0.451,1.412 -1.764,2.369 -3.244,2.369 h -17.773 c -1.09,0 -2.111,-0.521 -2.754,-1.4 -0.641,-0.879 -0.822,-2.012 -0.492,-3.049 l 22.492,-70.135 c 1.234,-3.838 2.154,-7.229 2.736,-10.079 0.553,-2.704 0.809,-4.938 0.758,-6.64 -0.043,-1.503 -0.334,-2.851 -0.863,-4.003 -0.516,-1.126 -1.258,-2.091 -2.266,-2.95 -4.15,-3.361 -9.27,-2.788 -14.156,-0.933 -3.363,1.203 -6.744,3.046 -10.059,5.481 -3.213,2.359 -6.223,5.884 -8.953,10.478 -2.836,4.767 -5.43,10.785 -7.707,17.893 l -20.199,62.97 c -0.451,1.41 -1.762,2.367 -3.244,2.367 h -17.773 c -1.088,0 -2.111,-0.521 -2.754,-1.4 -0.639,-0.879 -0.822,-2.012 -0.49,-3.049 l 36.977,-115.3 c 0.451,-1.41 1.764,-2.368 3.246,-2.368 h 15.998 c 1.086,0 2.111,0.52 2.752,1.4 0.643,0.88 0.824,2.013 0.492,3.049 l -1.361,4.244 c 3.27,-2.479 6.633,-4.555 10.066,-6.21 7.016,-3.375 10.5,-5.087 18.258,-5.087 3.4,0 6.621,0.345 9.563,1.024 3.004,0.695 5.803,1.753 8.316,3.151 0.963,0.535 1.881,1.119 2.729,1.74 0.119,0.086 0.24,0.175 0.357,0.265 0.023,-0.011 0.047,-0.021 0.072,-0.033 0.053,-0.029 0.107,-0.059 0.164,-0.086 0.102,-0.052 0.207,-0.101 0.313,-0.147 3.719,-1.946 7.598,-3.43 11.521,-4.409 3.99,-0.999 8.139,-1.505 12.328,-1.505 3.404,0 10.621,0.345 13.563,1.024 3.006,0.695 5.803,1.753 8.318,3.151 2.576,1.43 4.744,3.126 6.451,5.044 1.76,1.979 3.064,4.231 3.875,6.695 0.756,2.296 1.225,4.821 1.391,7.505 0.16,2.612 0.043,5.455 -0.35,8.443 -0.273,1.982 -0.842,4.562 -1.74,7.905 -0.857,3.189 -2.037,7.124 -3.5,11.689 l -22.734,70.896 c -0.453,1.412 -1.766,2.369 -3.244,2.369 h -17.774 z"
     style="fill:#000000;stroke:#000100;stroke-width:0.25;stroke-linecap:square;stroke-miterlimit:10" /><path
     id="path3081"
     inkscape:connector-curvature="0"
     stroke-miterlimit="10"
     d="m 827.8996,263.29013 c -3.957,0 -7.904,0.83 -11.732,2.466 -3.912,1.675 -7.828,4.242 -11.633,7.635 -3.814,3.401 -7.293,7.754 -10.334,12.941 -3.094,5.277 -5.818,11.559 -8.098,18.668 -2.268,7.073 -3.566,13.305 -3.857,18.519 -0.275,4.925 0.344,9.011 1.842,12.143 1.467,3.08 3.406,5.306 5.932,6.802 2.549,1.512 5.768,2.278 9.57,2.278 3.922,0 7.844,-0.838 11.656,-2.488 3.906,-1.69 7.822,-4.287 11.641,-7.714 3.826,-3.435 7.326,-7.86 10.402,-13.153 3.131,-5.393 5.906,-11.823 8.242,-19.115 2.188,-6.813 3.418,-12.842 3.66,-17.92 0.234,-4.803 -0.418,-8.83 -1.928,-11.973 -1.486,-3.086 -3.426,-5.316 -5.939,-6.817 -2.519,-1.508 -5.693,-2.272 -9.424,-2.272 z m -33.463,104.336 c -7.844,0 -14.639,-1.432 -20.201,-4.25 -5.701,-2.891 -10.209,-7.275 -13.393,-13.033 -3.145,-5.679 -4.672,-12.629 -4.531,-20.654 0.131,-7.755 1.826,-16.76 5.035,-26.769 3.506,-10.924 8.01,-20.585 13.395,-28.714 5.432,-8.21 11.91,-15.086 19.252,-20.443 6.131,-4.454 12.518,-7.842 18.986,-10.076 6.506,-2.249 13.273,-3.39 20.107,-3.39 7.721,0 14.432,1.438 19.955,4.272 5.641,2.896 10.139,7.288 13.369,13.049 3.186,5.688 4.795,12.493 4.777,20.227 -0.016,7.493 -1.561,16.082 -4.588,25.527 -2.422,7.55 -5.141,14.398 -8.086,20.353 -2.977,6.026 -6.273,11.323 -9.797,15.745 -3.518,4.417 -7.416,8.4 -11.586,11.839 -4.178,3.443 -8.74,6.434 -13.561,8.889 -4.828,2.455 -9.717,4.324 -14.531,5.557 -4.85,1.242 -9.764,1.871 -14.602,1.871 l 0,0 z"
     style="fill:#000000;stroke:#000100;stroke-width:0.25;stroke-linecap:square;stroke-miterlimit:10" /><path
     id="path3089"
     inkscape:connector-curvature="0"
     stroke-miterlimit="10"
     d="m 640.1458,363.97123 c -4.1,0 -7.5,-1.891 -9.32,-5.186 -1.703,-3.086 -1.828,-7.025 -0.352,-11.09 1.355,-3.717 3.934,-7.197 7.262,-9.795 3.424,-2.676 7.309,-4.149 10.932,-4.149 4.1,0 7.496,1.89 9.32,5.186 1.707,3.087 1.832,7.025 0.354,11.091 -1.355,3.717 -3.932,7.197 -7.262,9.795 -3.428,2.674 -7.311,4.148 -10.934,4.148 z"
     style="fill:#000000;stroke:#000100;stroke-width:0.25;stroke-linecap:square;stroke-miterlimit:10" /><path
     id="path3097"
     inkscape:connector-curvature="0"
     stroke-miterlimit="10"
     d="m 709.1965,367.66103 c -5.881,0 -11.646,-1.172 -16.676,-3.395 -6.754,-2.984 -12.111,-7.797 -15.506,-13.924 -3.145,-5.679 -4.67,-12.628 -4.531,-20.654 0.131,-7.755 1.828,-16.76 5.037,-26.769 3.506,-10.924 8.01,-20.585 13.393,-28.714 5.434,-8.21 11.912,-15.086 19.252,-20.443 1.742,-1.27 3.549,-2.48 5.361,-3.594 1.865,-1.144 3.768,-2.204 5.652,-3.148 6.863,-3.44 14.107,-5.578 21.529,-6.349 2.023,-0.211 4.068,-0.319 6.086,-0.319 5.596,0 11.1,0.811 16.361,2.411 1.746,0.531 3.766,1.186 5.619,2.24 2.6,1.478 4.277,3.42 4.992,5.777 l 0.1,0.367 c 0.039,0.162 0.07,0.279 0.094,0.399 0.592,2.88 -0.178,6.005 -2.225,9.036 -1.469,2.182 -3.596,4.279 -5.832,5.754 -2.199,1.45 -4.471,2.186 -6.752,2.186 -0.271,0 -0.549,-0.01 -0.822,-0.031 -2.215,-0.167 -4.402,-0.979 -6.887,-2.551 -0.922,-0.585 -2.08,-1.134 -3.352,-1.59 -1.225,-0.44 -2.512,-0.781 -3.729,-0.986 -0.998,-0.167 -2.041,-0.253 -3.098,-0.253 -3.234,0 -6.709,0.785 -10.324,2.333 -5.279,2.26 -9.566,5.569 -12.234,7.945 -3.814,3.401 -7.291,7.754 -10.332,12.941 -3.094,5.277 -5.818,11.559 -8.098,18.668 -2.27,7.073 -3.568,13.305 -3.857,18.519 -0.273,4.925 0.344,9.011 1.84,12.143 0.436,0.912 1.07,1.924 1.846,2.929 0.748,0.968 1.588,1.891 2.432,2.674 2.576,2.386 5.936,3.596 9.984,3.596 0.938,-0.001 1.924,-0.066 2.93,-0.193 4.5,-0.572 9.666,-2.446 14.545,-5.275 2.561,-1.486 4.691,-2.177 6.699,-2.177 0.189,0 0.377,0.005 0.564,0.019 2.125,0.146 5.057,1.193 6.941,5.351 1.107,2.439 1.625,5.171 1.459,7.699 -0.209,3.162 -1.449,5.855 -3.584,7.789 -1.955,1.77 -4.514,3.16 -8.053,4.377 -1.809,0.625 -3.598,1.113 -5.328,1.586 -0.828,0.227 -1.633,0.445 -2.393,0.668 -2.43,0.715 -5.018,1.322 -7.693,1.801 -2.576,0.463 -5.199,0.807 -7.801,1.014 -1.193,0.096 -2.41,0.143 -3.609,0.143 z"
     style="fill:#000000;stroke:#000100;stroke-width:0.25;stroke-linecap:square;stroke-miterlimit:10" /></g>
<g
   id="g3099"
   transform="translate(191.5293,62.97354)">
</g>
</svg>